<svg width="40" height="40" viewBox="0 0 40 40" fill="none" xmlns="http://www.w3.org/2000/svg">
<path d="M16.666 23.3333H19.9993M19.9993 23.3333H23.3327M19.9993 23.3333V26.6667M19.9993 23.3333V20" stroke="#84B638" stroke-width="2.25" stroke-linecap="round"/>
<path d="M3.33398 11.5836C3.33398 10.1127 3.33398 9.37723 3.44957 8.76463C3.95838 6.06783 6.06783 3.95838 8.76463 3.44957C9.37723 3.33398 10.1127 3.33398 11.5836 3.33398C12.228 3.33398 12.5503 3.33398 12.8599 3.36294C14.1951 3.48779 15.4615 4.01238 16.4939 4.86818C16.7333 5.06667 16.9612 5.29453 17.4169 5.75023L18.334 6.66732C19.6936 8.02695 20.3734 8.70677 21.1875 9.15969C21.6347 9.4085 22.1091 9.60499 22.6012 9.74528C23.4971 10.0007 24.4586 10.0007 26.3814 10.0007H27.0041C31.3914 10.0007 33.5851 10.0007 35.0109 11.2831C35.1421 11.4011 35.2669 11.5259 35.3849 11.657C36.6673 13.0829 36.6673 15.2765 36.6673 19.6638V23.334C36.6673 29.6194 36.6673 32.7621 34.7147 34.7147C32.7621 36.6673 29.6194 36.6673 23.334 36.6673H16.6673C10.3819 36.6673 7.23923 36.6673 5.28661 34.7147C3.33398 32.7621 3.33398 29.6194 3.33398 23.334V11.5836Z" stroke="#737373" stroke-width="2.25"/>
</svg>
