<svg width="56" height="56" viewBox="0 0 56 56" fill="none" xmlns="http://www.w3.org/2000/svg">
<path d="M4.28455 22.0938C19.9402 22.0938 35.5959 22.0938 51.726 22.0938C52.7585 25.8798 52.7585 30.1205 51.726 33.9065C36.0703 33.9065 20.4146 33.9065 4.28455 33.9065C4.10286 33.2403 3.94311 32.6177 3.84396 31.9417C3.83241 31.8672 3.82087 31.7928 3.80898 31.7162C3.7751 31.4937 3.74235 31.2716 3.71297 31.0486C3.70493 30.9877 3.69689 30.9268 3.68861 30.8641C3.62135 30.3157 3.60099 29.7747 3.59836 29.2225C3.59781 29.1315 3.59727 29.0404 3.59671 28.9465C3.59581 28.7542 3.59519 28.5618 3.59482 28.3694C3.59391 28.0826 3.59095 27.7959 3.58794 27.5091C3.56636 23.5301 3.56636 23.5301 4.28455 22.0938ZM7.99985 24.2848C7.78278 24.7303 7.79571 24.9926 7.94326 25.4636C8.01461 25.6635 8.08806 25.8625 8.16321 26.061C8.2215 26.2216 8.2215 26.2216 8.28098 26.3854C8.40579 26.7278 8.53323 27.0692 8.66074 27.4107C8.74334 27.6363 8.82576 27.862 8.90802 28.0877C9.06783 28.5253 9.22994 28.9618 9.39415 29.3977C9.53629 29.7751 9.67345 30.1535 9.8047 30.5348C9.84732 30.6545 9.84732 30.6545 9.89081 30.7767C9.94225 30.9213 9.9919 31.0665 10.0393 31.2125C10.1668 31.5623 10.2865 31.752 10.62 31.9079C10.9484 32.0301 10.9484 32.0301 11.2611 31.9204C11.5948 31.6608 11.7031 31.3951 11.8342 31.0069C11.8605 30.9345 11.8868 30.8621 11.9139 30.7876C11.9736 30.6223 12.0322 30.4566 12.0901 30.2907C12.2065 29.9577 12.3259 29.6258 12.4456 29.294C12.6807 28.6412 12.913 27.9875 13.1441 27.3333C13.3451 27.5343 13.3911 27.6431 13.4814 27.9067C13.5087 27.9855 13.5361 28.0644 13.5643 28.1456C13.6079 28.2736 13.6079 28.2736 13.6524 28.4042C13.7152 28.5842 13.7779 28.7642 13.8407 28.9442C13.9392 29.2284 14.0373 29.5127 14.1348 29.7971C14.2291 30.0715 14.3247 30.3453 14.4205 30.6191C14.4492 30.7041 14.4779 30.789 14.5074 30.8766C14.6804 31.3681 14.8327 31.75 15.3233 31.9952C15.6418 32.0046 15.829 31.8808 16.0973 31.7154C16.256 31.4672 16.256 31.4672 16.3567 31.1535C16.379 31.0928 16.4014 31.0321 16.4244 30.9696C16.4768 30.8266 16.5282 30.6833 16.5789 30.5398C16.6814 30.2513 16.7875 29.9643 16.894 29.6772C17.0871 29.1547 17.2775 28.6314 17.4659 28.1072C17.5761 27.8007 17.6868 27.4943 17.7987 27.1884C17.9294 26.831 18.0581 26.473 18.1868 26.1149C18.2271 26.0052 18.2675 25.8954 18.3091 25.7824C18.3636 25.6291 18.3636 25.6291 18.4191 25.4728C18.4515 25.3834 18.4838 25.294 18.5171 25.2019C18.5814 24.9197 18.5644 24.7502 18.4789 24.4753C18.305 24.2595 18.1626 24.1256 17.9132 24.005C17.6151 23.9959 17.4739 24.1052 17.2404 24.2848C16.9375 24.7115 16.7855 25.1934 16.6142 25.6829C16.5672 25.8151 16.5672 25.8151 16.5193 25.95C16.4198 26.2303 16.321 26.5109 16.2223 26.7915C16.1548 26.9821 16.0873 27.1726 16.0197 27.3632C15.8545 27.8294 15.6899 28.2957 15.5257 28.7622C15.2495 28.1264 14.9969 27.4866 14.7662 26.8331C14.7421 26.7653 14.7181 26.6974 14.6933 26.6275C14.5939 26.3467 14.4948 26.0658 14.3972 25.7844C14.3247 25.576 14.2508 25.368 14.1767 25.1601C14.1552 25.0968 14.1337 25.0336 14.1115 24.9685C13.9542 24.5316 13.7702 24.2168 13.3465 24.005C13.0062 23.995 12.8537 24.0896 12.5725 24.2848C12.389 24.6122 12.2751 24.9599 12.1557 25.3149C12.12 25.4156 12.0843 25.5163 12.0475 25.62C11.9729 25.8304 11.8991 26.0411 11.8262 26.2521C11.6831 26.6634 11.5334 27.0721 11.3835 27.4809C11.2388 27.8758 11.0958 28.2713 10.953 28.667C10.6814 28.3953 10.604 28.0634 10.483 27.7069C10.4565 27.6303 10.43 27.5537 10.4026 27.4747C10.3176 27.2293 10.2334 26.9836 10.1492 26.7379C10.0654 26.4935 9.98138 26.2492 9.89689 26.0051C9.84433 25.8532 9.79214 25.7011 9.74038 25.5489C9.48184 24.7351 9.48184 24.7351 8.95249 24.0943C8.57618 23.9126 8.32641 24.0576 7.99985 24.2848ZM22.8193 24.2967C22.6162 24.6705 22.6146 24.9405 22.7287 25.3523C22.8136 25.6059 22.9046 25.8565 22.998 26.1071C23.0321 26.2009 23.0662 26.2948 23.1014 26.3914C23.211 26.6918 23.3218 26.9917 23.4326 27.2916C23.5043 27.4877 23.5758 27.6839 23.6473 27.8801C23.8243 28.3648 24.0033 28.8487 24.1833 29.3323C24.2907 29.6216 24.3972 29.9114 24.5036 30.2012C24.5712 30.3833 24.639 30.5654 24.7068 30.7475C24.7527 30.8736 24.7527 30.8736 24.7996 31.0021C24.8286 31.0795 24.8577 31.1568 24.8876 31.2365C24.9126 31.304 24.9376 31.3715 24.9633 31.441C25.0646 31.6454 25.158 31.7654 25.3379 31.9059C25.7282 31.9658 25.7282 31.9658 26.1 31.9059C26.4958 31.5015 26.6488 31.0409 26.8308 30.5179C26.8776 30.3867 26.8776 30.3867 26.9253 30.2529C26.9908 30.0687 27.0557 29.8844 27.1203 29.6999C27.2194 29.4171 27.3199 29.1349 27.4207 28.8527C27.4841 28.6734 27.5475 28.4942 27.6108 28.3149C27.6409 28.2304 27.6709 28.1458 27.7019 28.0587C27.7293 27.9802 27.7567 27.9016 27.7849 27.8207C27.8091 27.7517 27.8334 27.6827 27.8583 27.6116C27.9229 27.4144 27.9229 27.4144 27.91 27.1427C27.9729 27.1427 28.0358 27.1427 28.1005 27.1427C28.1108 27.1946 28.1211 27.2464 28.1317 27.2999C28.2444 27.8401 28.4003 28.3485 28.5914 28.8657C28.6343 28.9834 28.6343 28.9834 28.6782 29.1034C28.7384 29.2676 28.7988 29.4317 28.8596 29.5957C28.9523 29.8468 29.0436 30.0984 29.1349 30.3501C29.1937 30.5103 29.2527 30.6704 29.3118 30.8305C29.3389 30.9055 29.366 30.9805 29.3939 31.0578C29.42 31.1275 29.4461 31.1972 29.4729 31.269C29.4954 31.3301 29.5179 31.3912 29.541 31.4541C29.6405 31.6514 29.7369 31.7688 29.9105 31.9059C30.3008 31.9658 30.3008 31.9658 30.6727 31.9059C31.1006 31.4807 31.2522 30.9514 31.4459 30.3947C31.4821 30.2933 31.5183 30.1919 31.5555 30.0874C31.671 29.763 31.7851 29.4383 31.8992 29.1135C32.0126 28.7934 32.1262 28.4734 32.2399 28.1534C32.3136 27.9458 32.387 27.7382 32.4602 27.5304C32.6183 27.0827 32.778 26.6363 32.9502 26.1937C32.9772 26.1239 33.0043 26.0541 33.0322 25.9822C33.1024 25.8029 33.1739 25.6241 33.2456 25.4454C33.3434 25.1314 33.3696 24.8972 33.34 24.5706C33.2058 24.2858 33.2058 24.2858 32.959 24.0943C32.6297 24.0149 32.6297 24.0149 32.2921 24.0943C31.804 24.4753 31.6503 24.9166 31.4567 25.4823C31.4102 25.6135 31.4102 25.6135 31.3627 25.7473C31.2976 25.9314 31.2332 26.1158 31.1694 26.3003C31.0715 26.5832 30.9717 26.8654 30.8716 27.1476C30.8085 27.3268 30.7455 27.506 30.6827 27.6853C30.6529 27.7698 30.6232 27.8544 30.5925 27.9415C30.5519 28.0593 30.5519 28.0593 30.5105 28.1795C30.4865 28.2485 30.4626 28.3175 30.4379 28.3886C30.3741 28.5859 30.3741 28.5859 30.3869 28.8575C30.324 28.8575 30.2611 28.8575 30.1963 28.8575C30.1858 28.8051 30.1752 28.7527 30.1644 28.6987C30.0548 28.1777 29.9101 27.6834 29.7297 27.1829C29.7034 27.1091 29.6771 27.0354 29.65 26.9594C29.5947 26.8049 29.5391 26.6506 29.4833 26.4964C29.3984 26.2612 29.3151 26.0255 29.2318 25.7897C29.1776 25.6388 29.1232 25.488 29.0688 25.3372C29.0443 25.2673 29.0198 25.1975 28.9945 25.1255C28.8467 24.7225 28.6863 24.4115 28.3863 24.0943C28.1991 24.0204 28.1991 24.0204 28.0053 24.0348C27.911 24.0329 27.911 24.0329 27.8147 24.031C27.5145 24.1307 27.422 24.3109 27.2432 24.5706C27.1081 24.8682 27.0007 25.1738 26.8934 25.4823C26.8622 25.5698 26.831 25.6572 26.7989 25.7473C26.7334 25.9315 26.6685 26.1158 26.6039 26.3003C26.5048 26.5831 26.4043 26.8654 26.3035 27.1476C26.2401 27.3268 26.1767 27.506 26.1134 27.6853C26.0833 27.7698 26.0533 27.8544 26.0223 27.9415C25.9949 28.0201 25.9675 28.0986 25.9393 28.1795C25.9151 28.2485 25.8909 28.3175 25.8659 28.3886C25.8013 28.5858 25.8013 28.5858 25.8142 28.8575C25.7513 28.8575 25.6885 28.8575 25.6237 28.8575C25.6134 28.8056 25.6031 28.7538 25.5924 28.7004C25.4797 28.161 25.3252 27.6517 25.1362 27.1346C25.1078 27.0561 25.0793 26.9776 25.05 26.8968C24.9903 26.7326 24.9302 26.5685 24.8699 26.4045C24.7779 26.1535 24.6878 25.9019 24.5977 25.6501C24.5392 25.49 24.4805 25.3298 24.4217 25.1697C24.3951 25.0947 24.3685 25.0197 24.3411 24.9424C24.1491 24.4244 24.1491 24.4244 23.7184 24.0943C23.3112 24.0361 23.1344 24.0221 22.8193 24.2967ZM37.6269 24.2848C37.4953 24.4863 37.4336 24.6082 37.4455 24.8503C37.6017 25.471 37.8068 26.0697 38.0247 26.6713C38.0635 26.7794 38.1023 26.8875 38.1422 26.999C38.2241 27.2268 38.3061 27.4546 38.3885 27.6823C38.5132 28.0276 38.6372 28.3732 38.761 28.7189C38.841 28.9414 38.9211 29.1638 39.0012 29.3863C39.056 29.5391 39.056 29.5391 39.1119 29.6949C39.295 30.2003 39.4837 30.7036 39.6815 31.2034C39.7179 31.2961 39.7543 31.3888 39.7918 31.4844C39.9205 31.7292 40.0023 31.8241 40.2467 31.9476C40.5731 32.0278 40.5731 32.0278 40.8421 31.9059C41.3112 31.4889 41.4762 30.9134 41.6827 30.3382C41.714 30.2522 41.7453 30.1661 41.7776 30.0775C41.877 29.804 41.9758 29.5302 42.0746 29.2564C42.1421 29.0704 42.2096 28.8844 42.2772 28.6984C42.4424 28.2435 42.6069 27.7885 42.7712 27.3333C42.9296 27.571 43.0158 27.7408 43.1085 28.004C43.1358 28.0809 43.1632 28.1579 43.1914 28.2372C43.235 28.3613 43.235 28.3613 43.2795 28.488C43.3422 28.6633 43.405 28.8386 43.4678 29.014C43.5663 29.2902 43.6644 29.5665 43.7619 29.8431C43.8561 30.1102 43.9517 30.3768 44.0476 30.6433C44.0763 30.7259 44.1049 30.8085 44.1345 30.8935C44.3094 31.3766 44.4672 31.7537 44.9503 31.9952C45.2753 32.0048 45.4529 31.8898 45.7244 31.7154C45.8562 31.4706 45.9462 31.2622 46.0336 31.002C46.0605 30.9277 46.0874 30.8533 46.1151 30.7767C46.1753 30.6102 46.2346 30.4433 46.2933 30.2762C46.3978 29.982 46.5068 29.6898 46.6168 29.3977C46.8229 28.8499 47.0249 28.3007 47.2253 27.7508C47.3091 27.5219 47.3936 27.2933 47.4789 27.0649C47.6035 26.7309 47.7257 26.3961 47.8473 26.061C47.8858 25.9594 47.9243 25.8577 47.9639 25.753C48.1814 25.1693 48.1814 25.1693 48.1478 24.5616C48.0263 24.2566 48.0263 24.2566 47.6951 24.0824C47.3552 23.9677 47.3552 23.9677 47.0819 24.0943C46.6127 24.5113 46.4477 25.0868 46.2412 25.6621C46.1943 25.7911 46.1943 25.7911 46.1464 25.9227C46.0469 26.1963 45.9481 26.47 45.8494 26.7438C45.7819 26.9298 45.7144 27.1158 45.6468 27.3018C45.4816 27.7567 45.317 28.2118 45.1528 28.667C44.9943 28.4293 44.9082 28.2594 44.8155 27.9962C44.7881 27.9193 44.7608 27.8423 44.7326 27.7631C44.7035 27.6803 44.6744 27.5975 44.6445 27.5123C44.5817 27.3369 44.519 27.1616 44.4562 26.9863C44.3577 26.71 44.2595 26.4337 44.1621 26.1571C44.0678 25.89 43.9722 25.6235 43.8764 25.3569C43.8477 25.2743 43.819 25.1918 43.7894 25.1067C43.6145 24.6236 43.4568 24.2466 42.9736 24.005C42.6489 23.9954 42.471 24.1108 42.1996 24.2848C42.0673 24.5281 41.9774 24.7344 41.89 24.9933C41.8636 25.0658 41.8373 25.1382 41.8101 25.2129C41.7156 25.4744 41.6243 25.737 41.5327 25.9996C41.4276 26.2951 41.3222 26.5904 41.2165 26.8857C41.108 27.1892 41 27.4928 40.8933 27.7969C40.8541 27.9083 40.8148 28.0197 40.7744 28.1344C40.7392 28.2348 40.704 28.3351 40.6678 28.4385C40.5801 28.667 40.5801 28.667 40.4848 28.7622C40.4666 28.7094 40.4483 28.6565 40.4295 28.602C40.2392 28.0514 40.0473 27.5014 39.8546 26.9516C39.7828 26.7464 39.7115 26.5411 39.6406 26.3356C39.5385 26.0402 39.435 25.7452 39.3313 25.4503C39.2999 25.3585 39.2685 25.2667 39.2362 25.1721C39.0557 24.6643 38.9089 24.2589 38.4009 24.005C38.0838 23.9957 37.8912 24.1182 37.6269 24.2848Z" fill="#38A1FF"/>
<path d="M42.608 35.4199C42.7371 35.4204 42.7371 35.4204 42.8688 35.421C42.959 35.4209 43.0491 35.4209 43.142 35.4209C43.4415 35.421 43.741 35.4217 44.0405 35.4225C44.2475 35.4226 44.4545 35.4228 44.6616 35.4229C45.2077 35.4232 45.7538 35.4242 46.2999 35.4252C46.8567 35.4262 47.4135 35.4266 47.9703 35.4271C49.0636 35.4281 50.157 35.4298 51.2504 35.4318C51.2204 35.5697 51.1903 35.7076 51.1601 35.8455C51.1433 35.9223 51.1266 35.9991 51.1093 36.0782C51.0572 36.3003 50.9902 36.5052 50.9013 36.7152C50.8715 36.7863 50.8417 36.8574 50.8109 36.9306C50.7791 37.0038 50.7473 37.077 50.7145 37.1525C50.6809 37.2308 50.6473 37.3091 50.6127 37.3898C50.2828 38.1497 49.9228 38.8912 49.5356 39.6234C49.5031 39.6853 49.4706 39.7473 49.4371 39.8111C48.6279 41.3414 47.6265 42.7062 46.4872 44.0055C46.4211 44.0855 46.355 44.1654 46.287 44.2478C46.2293 44.3172 46.1715 44.3865 46.1121 44.458C46.0641 44.5165 46.016 44.5749 45.9666 44.6352C45.7885 44.7965 45.6758 44.8276 45.4393 44.8629C45.1742 44.7509 44.9259 44.632 44.6712 44.4997C43.8945 44.1136 43.1036 43.7924 42.2896 43.4935C42.1283 43.434 42.1283 43.434 41.9638 43.3734C41.3496 43.1502 40.733 42.9462 40.1045 42.7671C40.1613 42.2258 40.308 41.7594 40.4915 41.2488C40.7992 40.3594 41.0441 39.4582 41.2715 38.5457C41.2873 38.4828 41.3031 38.4199 41.3195 38.355C41.5151 37.5748 41.6853 36.7939 41.8227 36.0013C41.9296 35.3962 41.9948 35.421 42.608 35.4199Z" fill="#111827"/>
<path d="M45.6231 11.1422C45.9146 11.2764 46.1002 11.4964 46.3086 11.7331C46.3543 11.7842 46.4 11.8353 46.4471 11.888C48.2793 13.962 51.2504 17.7216 51.2504 20.5688C48.201 20.5688 45.1516 20.5688 42.0098 20.5688C41.8931 20.1604 41.7857 19.7707 41.699 19.3579C41.3016 17.4985 40.878 15.6351 40.1852 13.8598C40.1045 13.6146 40.1045 13.6146 40.1045 13.2335C40.1699 13.213 40.2354 13.1925 40.3028 13.1714C42.0013 12.6349 43.6842 12.0483 45.2665 11.2191C45.4393 11.1377 45.4393 11.1377 45.6231 11.1422Z" fill="#111827"/>
<path d="M10.287 11.1387C10.6193 11.1842 10.8936 11.2803 11.1946 11.4248C11.2769 11.4636 11.3593 11.5024 11.4441 11.5424C11.5318 11.584 11.6196 11.6257 11.71 11.6686C12.4555 12.015 13.2051 12.3304 13.9785 12.6093C14.0622 12.6395 14.146 12.6697 14.2323 12.7009C14.7856 12.8967 15.344 13.0707 15.9076 13.2345C15.8502 13.8303 15.6666 14.3515 15.467 14.9135C14.8725 16.6409 14.4487 18.4277 14.146 20.2289C14.0976 20.4745 14.0976 20.4745 14.0023 20.5698C13.7152 20.5789 13.4303 20.5818 13.1432 20.5806C13.0531 20.5806 12.963 20.5806 12.8701 20.5807C12.5706 20.5806 12.2711 20.5798 11.9716 20.5791C11.7646 20.5789 11.5576 20.5788 11.3505 20.5787C10.8044 20.5783 10.2583 20.5774 9.71219 20.5763C9.15539 20.5754 8.5986 20.5749 8.04181 20.5745C6.94845 20.5734 5.85508 20.5718 4.76172 20.5698C4.79166 20.4319 4.8218 20.294 4.85201 20.1561C4.86878 20.0793 4.88554 20.0025 4.90281 19.9233C4.95485 19.7013 5.02192 19.4963 5.11077 19.2863C5.1406 19.2153 5.17044 19.1442 5.20117 19.071C5.23299 18.9978 5.2648 18.9245 5.29758 18.8491C5.33117 18.7708 5.36477 18.6924 5.39938 18.6117C5.72929 17.8519 6.08928 17.1103 6.47647 16.3782C6.50897 16.3162 6.54146 16.2543 6.57494 16.1905C7.3836 14.6613 8.38308 13.292 9.52491 11.996C9.5943 11.9161 9.66368 11.8362 9.73516 11.7538C10.1549 11.2708 10.1549 11.2708 10.287 11.1387Z" fill="#111827"/>
<path d="M4.76172 35.4316C7.81112 35.4316 10.8605 35.4316 14.0023 35.4316C14.119 35.84 14.2264 36.2298 14.313 36.6425C14.7105 38.502 15.1341 40.3654 15.8268 42.1407C15.9076 42.3859 15.9076 42.3859 15.9076 42.767C15.8422 42.7874 15.7767 42.8079 15.7093 42.829C14.0108 43.3655 12.3279 43.9522 10.7456 44.7814C10.5728 44.8628 10.5728 44.8628 10.389 44.8583C10.0975 44.7241 9.91188 44.5041 9.70353 44.2674C9.6578 44.2163 9.61206 44.1652 9.56494 44.1125C7.73332 42.039 4.76172 38.3024 4.76172 35.4316Z" fill="#111827"/>
<path d="M38.676 13.8066C38.7874 14.0112 38.7874 14.0112 38.8773 14.2848C38.9284 14.438 38.9284 14.438 38.9806 14.5943C39.0156 14.7057 39.0507 14.8171 39.0868 14.932C39.1423 15.1032 39.1423 15.1032 39.1989 15.278C40.3908 19.0384 40.3908 19.0384 40.3908 20.5704C36.5554 20.5704 32.7201 20.5704 28.7686 20.5704C28.7686 18.7156 28.7686 16.8608 28.7686 14.9498C29.6468 14.8909 29.6468 14.8909 30.5428 14.8307C32.8665 14.6643 35.1503 14.4006 37.4248 13.8869C37.5334 13.8628 37.642 13.8386 37.7539 13.8137C37.8494 13.7917 37.945 13.7697 38.0434 13.747C38.301 13.7105 38.4427 13.691 38.676 13.8066Z" fill="#111827"/>
<path d="M28.7686 35.4316C32.6039 35.4316 36.4392 35.4316 40.3908 35.4316C40.3202 36.2077 40.227 36.8872 40.0514 37.6346C40.0143 37.7939 40.0143 37.7939 39.9764 37.9563C39.6215 39.4343 39.1626 40.8861 38.5807 42.2906C38.0478 42.1956 37.5158 42.0976 36.9851 41.9907C34.2671 41.4516 31.5318 41.214 28.7686 41.0522C28.7686 39.1974 28.7686 37.3426 28.7686 35.4316Z" fill="#111827"/>
<path d="M17.4321 13.7109C17.9941 13.8006 18.5543 13.8942 19.1115 14.0109C20.3029 14.2592 21.493 14.4477 22.7014 14.5862C22.7969 14.5974 22.7969 14.5974 22.8943 14.6088C24.3097 14.773 25.726 14.8512 27.149 14.9494C27.149 16.8042 27.149 18.6589 27.149 20.5699C23.3451 20.5699 19.5412 20.5699 15.6221 20.5699C15.6926 19.7939 15.7858 19.1143 15.9614 18.367C15.9862 18.2608 16.0109 18.1546 16.0364 18.0453C16.3914 16.5672 16.8502 15.1155 17.4321 13.7109Z" fill="#111827"/>
<path d="M15.6221 35.4316C19.426 35.4316 23.2298 35.4316 27.149 35.4316C27.149 37.2864 27.149 39.1412 27.149 41.0522C26.5792 41.0915 26.0094 41.1308 25.4223 41.1713C22.8962 41.3569 20.4305 41.6904 17.9586 42.2442C17.7179 42.2906 17.7179 42.2906 17.4321 42.2906C16.6721 40.5979 16.2108 38.7751 15.8126 36.9678C15.7928 36.8784 15.773 36.7891 15.7527 36.6971C15.6587 36.2512 15.6221 35.8981 15.6221 35.4316Z" fill="#111827"/>
<path d="M28.7686 42.5762C35.6276 42.5762 35.6276 42.5762 37.9139 43.7193C37.68 45.652 35.7669 47.8575 34.4844 49.2446C34.3602 49.3804 34.3602 49.3804 34.2336 49.5189C32.8562 50.9625 31.1203 52.012 29.1496 52.3884C29.0239 52.3884 28.8981 52.3884 28.7686 52.3884C28.7686 49.1503 28.7686 45.9123 28.7686 42.5762Z" fill="#111827"/>
<path d="M28.7686 3.61328C30.7657 3.83519 32.3661 4.73259 33.8175 6.09014C33.9087 6.17463 33.9998 6.25912 34.0937 6.34616C35.5299 7.73014 36.5783 9.43525 37.509 11.1868C37.55 11.2637 37.591 11.3405 37.6333 11.4198C37.6704 11.4912 37.7075 11.5627 37.7457 11.6363C37.7783 11.6991 37.811 11.7619 37.8446 11.8266C37.9139 11.9965 37.9139 11.9965 37.9139 12.2823C36.2343 12.7467 34.5233 13.0092 32.7935 13.2052C32.6975 13.2165 32.6016 13.2279 32.5027 13.2396C31.2581 13.3717 30.0262 13.3806 28.7686 13.4255C28.7686 10.1874 28.7686 6.94942 28.7686 3.61328Z" fill="#111827"/>
<path d="M27.1497 42.5762C27.1497 45.8142 27.1497 49.0522 27.1497 52.3884C25.1594 52.0566 23.6575 51.2651 22.196 49.9115C22.1046 49.8269 22.0132 49.7423 21.9191 49.6551C20.4837 48.2701 19.4353 46.5665 18.5045 44.8149C18.4635 44.738 18.4224 44.6611 18.3802 44.5819C18.3431 44.5104 18.306 44.439 18.2678 44.3653C18.2189 44.2711 18.2189 44.2711 18.1689 44.175C18.0996 44.0051 18.0996 44.0051 18.0996 43.7193C20.1879 43.1135 22.4114 42.8202 24.5776 42.6714C24.6555 42.6661 24.7335 42.6607 24.8138 42.6552C25.5944 42.6033 26.3663 42.5762 27.1497 42.5762Z" fill="#111827"/>
<path d="M27.1497 3.61328C27.1497 6.8513 27.1497 10.0893 27.1497 13.4255C24.1453 13.3142 24.1453 13.3142 23.2558 13.2111C23.1484 13.1991 23.0411 13.1872 22.9306 13.1748C21.3066 12.9842 19.6705 12.744 18.0996 12.2823C18.4397 10.3048 20.1965 8.19836 21.5291 6.75699C21.6119 6.66649 21.6946 6.57598 21.7799 6.48273C23.0907 5.10892 25.1587 3.61328 27.1497 3.61328Z" fill="#111827"/>
<path d="M34.1973 4.375C34.8713 4.49046 35.4978 4.66669 36.1383 4.90491C36.2289 4.93846 36.3196 4.97202 36.4131 5.00659C39.1059 6.01923 41.5885 7.40372 43.7583 9.3023C43.9982 9.51757 43.9982 9.51757 44.2338 9.67368C44.2855 9.71703 44.3372 9.76038 44.3905 9.80504C44.3905 9.89935 44.3905 9.99367 44.3905 10.0908C43.2437 10.6097 42.0856 11.0698 40.8955 11.4781C40.8338 11.4994 40.7721 11.5206 40.7085 11.5426C39.6654 11.9008 39.6654 11.9008 39.4368 11.9008C39.3938 11.8112 39.3938 11.8112 39.35 11.7197C38.0933 9.11259 36.6362 6.86627 34.5601 4.8366C34.4375 4.71613 34.3172 4.59341 34.1973 4.47026C34.1973 4.43883 34.1973 4.40739 34.1973 4.375Z" fill="#111827"/>
<path d="M16.5738 44.0996C16.6168 44.1893 16.6168 44.1893 16.6606 44.2808C18.0058 47.0715 19.6063 49.3568 21.8134 51.5302C21.3183 51.6952 20.8471 51.4307 20.3665 51.2682C20.1938 51.2099 20.1938 51.2099 20.0176 51.1503C17.0665 50.1281 14.4857 48.5676 12.0964 46.5765C12.0083 46.5115 11.9201 46.4465 11.8293 46.3796C11.7602 46.3188 11.6912 46.258 11.6201 46.1954C11.6201 46.1011 11.6201 46.0068 11.6201 45.9096C12.7669 45.3907 13.925 44.9307 15.1151 44.5223C15.1768 44.5011 15.2385 44.4798 15.3021 44.4579C16.3452 44.0996 16.3452 44.0996 16.5738 44.0996Z" fill="#111827"/>
<path d="M39.4368 44.0996C40.1881 44.2921 40.9169 44.5256 41.6457 44.7903C41.7489 44.8275 41.8521 44.8648 41.9585 44.9032C42.785 45.2053 43.5923 45.5396 44.3905 45.9096C44.3364 46.2349 44.2446 46.3708 43.992 46.5794C43.9281 46.6325 43.8642 46.6856 43.7984 46.7403C43.7285 46.7962 43.6587 46.8522 43.5867 46.9099C43.514 46.9687 43.4414 47.0275 43.3665 47.0881C41.0109 48.9654 38.3532 50.3436 35.5071 51.3099C35.3599 51.3601 35.3599 51.3601 35.2097 51.4114C35.1187 51.4411 35.0278 51.4709 34.9341 51.5015C34.8136 51.5411 34.8136 51.5411 34.6906 51.5814C34.4831 51.6255 34.4831 51.6255 34.1973 51.5302C34.2461 51.4833 34.295 51.4365 34.3453 51.3882C36.5695 49.2427 38.1087 46.887 39.4368 44.0996Z" fill="#111827"/>
<path d="M21.8134 4.47029C21.7635 4.51863 21.7137 4.56698 21.6623 4.61679C20.2591 5.98294 20.2591 5.98294 19.0507 7.51873C19.0116 7.57424 18.9725 7.62974 18.9322 7.68693C18.0048 9.01054 17.295 10.4586 16.5738 11.9009C14.8578 11.4876 13.2288 10.8052 11.6201 10.0909C11.6742 9.76558 11.766 9.62965 12.0187 9.42103C12.1145 9.34144 12.1145 9.34144 12.2123 9.26023C12.2821 9.20425 12.3519 9.14827 12.4239 9.09059C12.4966 9.03178 12.5692 8.97297 12.6441 8.91239C14.9998 7.0351 17.6574 5.65692 20.5035 4.69058C20.6016 4.65709 20.6998 4.6236 20.8009 4.58909C20.8919 4.55934 20.9828 4.52959 21.0765 4.49894C21.1569 4.47258 21.2372 4.44621 21.32 4.41905C21.5276 4.37502 21.5276 4.37502 21.8134 4.47029Z" fill="#111827"/>
</svg>
